<?xml version="1.0" encoding="iso-8859-1"?>
<!-- Uploaded to: SVG Repo, www.svgrepo.com, Generator: SVG Repo Mixer Tools -->
<!DOCTYPE svg PUBLIC "-//W3C//DTD SVG 1.1//EN" "http://www.w3.org/Graphics/SVG/1.1/DTD/svg11.dtd">
<svg fill="#000000" height="800px" width="800px" version="1.1" id="Capa_1" xmlns="http://www.w3.org/2000/svg" xmlns:xlink="http://www.w3.org/1999/xlink" 
	 viewBox="0 0 407.097 407.097" xml:space="preserve">
<g>
	<path d="M204.742,186.565c-12.363,0-23.596,0.401-33.972,0.969c-16.463,45.119-53.168,161.014,4.194,161.014c2.062,0,3.8,0,5.266,0
		c0.433,0,0.837,0,1.223,0c2.363,0,3.856,0,4.705,0c0.659,0,0.937,0,0.937,0c7.415,0,21.488,0,47.433,0
		c57.359,0,20.66-115.885,4.196-161.008C228.378,186.969,217.151,186.565,204.742,186.565z"/>
	<path d="M121.138,100.367c6.839-0.001,13.157-4.915,21.157-11.137c4.044-3.145,8.561-6.656,13.817-9.989
		c-8.742-1.913-19.609-4.653-40.671-14.536C89.482,52.52,67.763,64.236,54.699,75.327c18.228,3.524,37.652,10.982,55.772,21.637
		C114.365,99.254,117.854,100.367,121.138,100.367z"/>
	<path d="M285.961,100.367c3.285-0.001,6.774-1.113,10.667-3.402c14.158-8.325,29.113-14.692,43.672-18.766
		c-17.754-11.6-46.27-26.633-62.103-16.061c-11.643,7.773-21.681,11.332-31.714,14.411c7.244,4.071,13.166,8.674,18.318,12.681
		C272.802,95.453,279.121,100.368,285.961,100.367z"/>
	<path d="M405.788,94.088c-3.612-7.242-15.137-11.565-30.827-11.565c-22.258,0-49.053,8.25-73.515,22.634
		c-5.393,3.171-10.458,4.713-15.484,4.714c-10.102,0.002-17.931-6.088-26.996-13.139c-12.378-9.628-27.783-21.61-55.417-21.61
		c-27.633,0-43.039,11.982-55.418,21.61c-9.064,7.049-16.893,13.138-26.992,13.139c-5.025,0-10.09-1.542-15.485-4.714
		C81.191,90.773,54.396,82.523,32.138,82.523c-15.693,0-27.219,4.322-30.829,11.563c-3.901,7.821,1.658,17.933,7.009,25.039
		c40.118,53.264,64.093,62.637,99.635,62.637c10.481,0,21.882-0.864,35.081-1.864c17.552-1.329,37.445-2.836,61.709-2.836
		c24.358,0,44.147,1.516,61.607,2.852c12.943,0.991,24.122,1.847,34.348,1.848c34.491,0,57.967-9.372,98.085-62.637
		C404.132,112.021,409.689,101.91,405.788,94.088z M35.45,103.283c-3.81,0.357-8.194,1.058-11.17,3.679
		c-5.645,4.964-12.652-3.704-6.472-7.58c17.231-11.475,45.007,2.503,58.693,14.151C64.437,106.339,49.55,101.959,35.45,103.283z"/>
</g>
</svg>